<svg width="50" height="52" viewBox="0 0 50 52" fill="none" xmlns="http://www.w3.org/2000/svg">
<path d="M49.8121 8.17413C48.8807 8.14939 48.4379 9.3968 47.7617 9.39267C47.8318 8.8066 48.2452 8.2164 48.6426 7.59425C48.8926 7.26487 49.3755 7.08343 49.2725 6.58395C49.2194 6.32983 49.1168 6.16489 48.9395 5.9319C48.1137 5.97984 46.6782 7.13755 46.2039 7.27569C44.5462 7.75558 42.0509 8.91691 41.5432 8.99783C41.186 9.05453 39.9561 9.09577 40.0741 8.84629C40.3236 8.22929 40.8473 7.64218 41.4252 6.97209C41.9514 6.36488 42.72 5.90819 42.9251 5.22212C43.1854 4.36285 43.2102 3.1139 42.3968 2.20464C42.0019 1.83969 42.3437 2.91442 42.4344 3.3675C42.6731 4.94686 41.5617 5.82365 40.8437 6.28241C41.4076 4.69017 41.1994 2.47473 39.6221 1.24279C38.935 0.872697 40.1071 2.42061 40.32 3.76028C40.4045 4.55666 40.0979 5.68757 39.8241 6.34066C39.5051 7.10662 39.235 8.15455 38.436 8.29784C38.2474 7.21796 38.9128 5.97314 38.5422 4.78501C38.2247 3.77059 37.7577 3.32885 36.8067 2.90359C36.4123 2.80205 36.4623 3.16287 36.8927 3.57059C38.1432 4.75666 38.0123 6.51797 37.2474 7.6159C35.7861 6.73704 35.8392 4.66388 35.0191 3.00617C34.7232 2.40412 34.2866 1.80567 33.916 1.37784C33.4454 0.826306 33.1031 -0.150484 32.6938 0.019617C32.4335 0.117554 34.6113 2.90566 34.284 3.16081C33.9809 3.48864 33.3418 2.00103 32.6062 1.93608C32.1846 2.48607 36.5634 5.02521 34.4119 6.9056C34.315 6.67725 34.3186 6.45045 34.0742 6.31746C33.6974 6.13911 33.9443 6.81694 33.9583 7.0391C32.2841 7.43909 31.3707 7.71022 30.215 6.59529C29.9191 6.30921 29.665 5.52984 29.1789 5.86953C29.098 5.93241 29.7037 7.12054 30.3939 7.74631C31.3526 8.37413 32.8603 8.05094 34.0629 8.20455C34.2701 8.93546 34.5108 9.76019 34.4443 10.3344C33.132 11.5488 29.8083 12.6534 28.6573 12.0205C26.8542 10.7927 25.3084 7.03291 24.2898 6.34684C24.2285 6.33138 24.1435 6.38808 24.1801 6.46952C25.1867 8.76279 26.2512 11.2942 27.7187 12.6926C25.163 13.1235 23.7182 13.2163 22.2966 11.4962C21.3718 10.3772 20.661 8.05197 19.7641 7.94527C19.4033 7.90197 20.8425 9.4937 20.7466 10.389C20.6956 10.8715 18.2044 7.78393 18.1585 8.25815C18.1312 8.5365 19.2672 10.1334 20.0646 11.3617C20.3358 11.7844 21.3177 12.5705 21.1734 12.6875C19.343 13.8215 17.8121 11.0926 17.4023 10.9679C16.8606 10.8354 18.2884 13.571 19.6667 13.8493C20.4152 13.9993 21.3827 13.7256 22.3486 13.8065C23.8795 13.9328 24.1553 14.407 25.7646 14.2684C27.0785 14.156 28.3491 13.6869 29.9346 13.3833C30.5248 13.2704 31.1578 13.2818 31.7748 13.1148C32.9062 12.8076 33.8108 11.9442 34.9412 11.9674C35.0974 11.9803 35.1696 11.9591 35.2598 12.0163C35.2495 12.3952 34.7046 12.3266 34.8376 12.8241C35.0536 13.1158 35.3551 13.2612 35.6727 13.4344C35.9773 13.5998 36.4247 13.6179 36.5948 13.9395C35.1098 14.3828 33.5732 15.5962 31.8768 15.7792C31.2171 15.8513 30.3403 15.5936 29.4392 15.7807C28.7924 15.9153 28.0274 16.4807 27.5841 16.7008C27.0986 16.9426 25.23 17.6472 24.7749 17.7843C23.0863 18.2894 21.0791 18.824 19.1466 18.9508C16.5039 19.1245 14.2178 18.0915 11.6926 18.0879C10.0705 18.0858 8.91121 18.3503 7.8004 18.8343C6.57464 19.3683 5.67311 20.0178 4.99993 21.1734C4.22932 22.4981 3.11387 24.8852 3.1448 25.9893C3.16748 26.7842 3.43809 27.9682 3.82005 28.1419C4.19736 28.3079 3.95716 27.1156 4.54581 27.8388C5.18755 28.562 5.34167 29.6403 5.07621 30.4248C4.66694 31.632 4.4587 32.8047 3.78499 33.598C2.84686 34.7005 1.68606 35.3196 0.968027 36.4763C1.14019 38.4783 0.750504 40.0056 0.792772 41.7979C0.845348 44.0169 0.743288 45.754 0 47.1973C0.224223 47.3586 0.690196 47.2416 0.803596 47.5282C0.899471 48.5282 0.867513 49.224 0.979882 50.0431C1.44276 50.8957 3.27727 51.5828 3.92932 50.3967C3.33242 48.1581 2.62316 45.9705 2.66594 43.5025C2.6948 41.8427 3.23655 39.9824 3.7953 38.7613C4.00458 38.3025 4.20251 37.4902 4.52107 37.2536C5.26642 36.7021 5.66899 35.9845 6.25815 35.3608C6.9535 34.6253 7.15969 34.2042 7.97875 33.7052C7.7303 34.4846 7.83803 35.3706 7.76586 36.2284C7.69318 37.1005 7.52978 37.866 7.37051 38.5788C7.72463 39.2118 8.20245 39.6742 8.62307 40.1113C9.17048 40.6803 9.4014 41.2628 9.83078 42.0324C10.0725 42.4669 10.4127 42.8834 10.6019 43.3102C10.8988 43.9834 11.0555 44.7782 11.3375 45.4607C11.6137 46.1323 11.9045 46.739 12.3436 47.2967C12.7024 47.4328 13.2751 47.3215 13.5348 47.5735C13.7807 47.9436 13.7117 48.4452 13.9116 48.7931C14.4926 49.8034 16.2637 49.8044 17.5425 49.1328C17.2693 48.4797 16.5998 48.2895 16.4528 47.4931C15.6905 47.2034 15.1456 46.6648 14.9621 45.7071C13.6622 44.455 12.3761 42.9746 11.6168 41.1102C11.3369 40.419 10.972 39.6257 10.9792 38.9551C10.9849 38.4422 11.29 37.7407 11.5359 37.185C11.9766 36.1902 12.5807 35.3005 13.0044 34.4825C13.3591 33.7985 13.6617 33.0511 14.1307 32.482C15.191 31.7898 16.0745 32.7207 16.9843 32.847C17.3626 32.8397 17.0698 32.2645 17.4286 32.2418C19.6744 32.998 22.6259 33.8882 25.6996 33.4634C26.5243 33.3485 27.3006 33.0397 28.1877 32.9954C28.4362 34.0562 28.68 35.1309 28.848 36.2526C29.1021 37.9422 29.4949 39.684 29.4918 41.3886C29.4867 43.2958 29.3326 45.1808 29.199 47.0303C29.3882 47.2725 29.8083 47.2653 29.8619 47.6524C29.8923 48.0699 29.9542 48.5148 29.8331 48.8153C30.314 49.2586 31.5346 49.122 32.3794 48.8967C32.1913 48.2029 31.9176 47.64 31.6578 47.0225C31.8057 46.7864 31.7449 46.5488 31.7366 46.2596C31.7042 44.8849 31.0897 43.6262 31.333 42.2772C31.3418 42.2314 31.4902 42.0556 31.5155 41.9767C31.664 41.5226 31.7299 41.2004 31.8191 40.8164C31.948 40.2788 31.4578 37.3613 31.5181 36.6984C31.85 38.252 33.3552 42.4365 33.6495 44.2648C33.8113 45.2829 33.7825 46.1988 33.9103 47.3385C34.0402 47.3426 34.0464 47.6442 34.0464 47.7818C34.5866 47.9622 34.5675 48.6137 35.0897 48.6586C35.4855 48.7421 36.7592 48.707 37.2778 48.3576C36.9665 47.5617 36.5268 46.9236 36.2273 46.1401C35.6953 44.7365 35.5629 43.0581 35.2814 41.4628C35.1113 40.4809 35.0773 39.3896 34.782 38.3912C34.6371 37.8989 34.2026 37.5026 33.9753 36.9557C33.2856 35.3041 33.3062 33.2459 33.1387 31.5459C34.1979 31.0733 34.4433 29.948 35.3402 29.3522C35.6283 29.3269 35.916 29.3032 36.2036 29.2774C36.4933 29.1357 36.6675 28.8506 37.0443 29.0125C37.1896 28.7192 37.4108 28.3517 37.8623 28.5553C37.9221 28.2867 38.1097 28.1233 38.1716 27.8558C38.5453 27.8646 38.5221 27.9311 38.7334 27.711C38.7474 27.3754 38.935 27.1795 38.9329 26.8228C39.2401 26.9079 39.1484 26.6532 39.2937 26.5981C39.3788 26.4641 39.3556 26.2368 39.4412 26.1007C39.3927 25.8507 39.8025 25.994 39.6989 25.6909C39.8576 25.4368 39.8169 25.0115 40.0133 24.7888C40.1803 24.8337 40.0396 25.2491 40.2381 25.2558C40.4927 24.4198 40.7365 23.76 41.4226 23.2992C41.5401 21.3755 42.8519 20.227 43.0287 18.3528C43.7715 17.2786 45.1715 16.8853 45.7679 15.708C45.9771 15.2921 46.0808 14.8539 46.2096 14.6508C47.0704 13.288 47.9926 11.5988 48.9874 10.3659C49.3436 10.221 49.6745 9.88906 49.7828 9.52618C49.9621 9.19525 50.1513 8.40557 49.8121 8.17413ZM34.6521 8.13393C35.4185 8.47052 36.3 8.38547 36.767 9.30504C35.9747 10.3751 35.0191 9.56896 34.6521 8.13393Z" fill="#2F2911"/>
</svg>







