<svg width="50" height="41" viewBox="0 0 50 41" fill="none" xmlns="http://www.w3.org/2000/svg">
<path d="M32.9975 13.9004L24.323 25.4762L18.5819 22.0145L18.5585 21.8652L9.90088 28.3451V30.5056H21.4341H33.0034H38.7882H44.5505V27.6532L40.2221 18.2038L32.9975 13.9004Z" fill="#2F2911"/>
<path d="M16.4786 14.936C18.3502 14.936 19.868 13.4311 19.868 11.5755C19.868 9.71957 18.3502 8.21411 16.4786 8.21411C14.608 8.21411 13.0903 9.71957 13.0903 11.5755C13.0903 13.4311 14.608 14.936 16.4786 14.936Z" fill="#2F2911"/>
<path d="M49.9957 35.3222L49.913 34.2322V2.01328C49.913 1.23334 49.3187 0.502771 48.5326 0.502771H47.0527C46.756 0.167421 46.3113 -0.0318253 45.8286 0.00417811L39.1505 0.502771H5.78197C4.99699 0.502771 4.40094 1.23334 4.40094 2.01328V3.09733L1.37198 3.32345C0.555515 3.38441 -0.0574538 4.09248 0.00428302 4.90323L2.58156 38.8621C2.64274 39.6731 3.35609 40.2823 4.17214 40.2214L48.629 36.9022C49.4462 36.8413 50.0572 36.1331 49.9957 35.3222ZM7.01341 5.42801V3.36668H34.0713H45.2534H47.3005V30.3829V33.2332H7.01341V5.42801ZM2.3903 5.77318L4.40094 5.62317V32.266L2.3903 5.77318ZM4.645 35.4834C4.89043 35.8523 5.30032 36.0971 5.78197 36.0971H25.5833L4.80945 37.6481L4.645 35.4834Z" fill="#2F2911"/>
</svg>