<svg width="50" height="29" viewBox="0 0 50 29" fill="none" xmlns="http://www.w3.org/2000/svg">
<path d="M49.7604 28.0411C46.2908 25.0016 42.7924 22.0194 39.2654 19.0659C37.4876 17.6034 35.7097 16.1123 33.9319 14.6786C32.154 13.2735 30.5196 11.6677 28.6557 10.2053C28.0822 9.74652 27.5087 9.31639 26.8778 8.91494C26.5624 8.71422 26.247 8.5135 25.9316 8.34145C25.6448 8.1694 25.3007 8.02602 24.9566 8.0547C24.7846 8.0547 24.6125 8.11205 24.4405 8.1694C24.2684 8.25542 24.1537 8.31277 24.0677 8.34145C22.6626 9.11567 21.6017 10.148 20.5694 11.0082C20.3113 11.2376 20.0532 11.4383 19.7665 11.6391L18.9349 12.2986L17.2431 13.6176L16.3828 14.2485C16.3828 14.0478 16.3828 13.847 16.3828 13.6463C16.3828 13.4169 16.3542 13.1875 16.2968 12.9294C16.2395 12.6714 16.1534 12.3846 15.9527 12.0692C15.7233 11.7824 15.4366 11.553 15.1785 11.4383C15.0351 11.381 14.9204 11.3236 14.8057 11.295C14.691 11.2663 14.5763 11.2376 14.4616 11.2089C14.0028 11.1229 13.6014 11.1229 13.1999 11.1229C12.7985 11.1229 12.4257 11.1516 12.0529 11.1803C11.6801 11.2089 11.336 11.2376 11.0493 11.2376C10.7339 11.2376 10.3611 11.2089 9.95965 11.1803C9.5582 11.1803 9.09941 11.1803 8.58326 11.3236C8.32518 11.4097 8.03843 11.5244 7.78036 11.7538C7.63699 11.8685 7.55096 11.9832 7.43626 12.1265C7.35024 12.2699 7.26421 12.4133 7.20686 12.5567C7.14951 12.7 7.09216 12.8434 7.09216 12.9581C7.06349 13.0728 7.03481 13.1875 7.03481 13.3022C7.00614 13.5316 6.97746 13.7323 6.97746 13.9331C6.92011 14.7933 7.00614 15.5675 7.06349 16.2844L7.09216 16.8292L7.12084 17.374C7.12084 17.7755 7.14951 18.1483 7.17819 18.521C7.23554 19.2666 7.29289 19.9835 7.26421 20.6717C7.26421 20.8437 7.23554 21.0158 7.23554 21.1591C7.20686 21.3312 7.20686 21.4746 7.17819 21.5893C7.12084 21.8187 7.03481 21.962 6.80541 22.1628L5.14227 23.5965L3.45045 25.0876C2.33213 26.0912 1.24248 27.0948 0.12416 28.0985C-0.162589 28.3565 0.0954849 28.7006 0.410909 28.4712C1.64393 27.6397 2.87695 26.7794 4.10997 25.9192L5.94517 24.6288L6.86276 23.9693C7.14951 23.7399 7.43626 23.5678 7.80904 23.2811C8.15313 23.023 8.52591 22.5355 8.69796 22.0481C8.78398 21.79 8.81266 21.5606 8.87001 21.3599C8.89868 21.1591 8.92736 20.9584 8.95603 20.729C9.01338 19.9261 8.98471 19.1232 8.95603 18.4063C8.95603 18.0336 8.92736 17.6608 8.92736 17.3167C8.92736 17.1446 8.92736 16.9152 8.92736 16.7145L8.89868 16.141C8.84133 15.3955 8.78398 14.6499 8.84133 14.0191C8.84133 13.847 8.87001 13.7037 8.89868 13.5603C8.89868 13.4743 8.92736 13.4169 8.92736 13.3596C8.92736 13.3022 8.95603 13.2735 8.95603 13.2449C8.98471 13.1875 8.98471 13.1588 9.01338 13.1588C9.01338 13.1302 9.07073 13.1302 9.15676 13.0728C9.32881 13.0155 9.61555 12.9868 9.93098 13.0155C10.2464 13.0155 10.6192 13.0728 11.0206 13.0728C11.4794 13.0728 11.8522 13.0441 12.1963 13.0155C12.5404 12.9868 12.8845 12.9581 13.2286 12.9581C13.544 12.9581 13.8881 12.9581 14.1175 13.0155C14.1749 13.0155 14.2322 13.0441 14.2896 13.0441C14.3469 13.0441 14.3756 13.0728 14.4043 13.1015C14.4903 13.1302 14.4616 13.1302 14.4616 13.1302C14.4616 13.1302 14.4903 13.1875 14.519 13.3022C14.5476 13.4169 14.5476 13.5603 14.5763 13.7037C14.5763 14.0191 14.5763 14.3345 14.5476 14.7073C14.519 15.0227 14.5476 15.3381 14.6337 15.6249L13.9455 16.1697C12.8845 17.0013 12.2823 17.9762 12.5977 18.3777C12.9132 18.7791 14.0315 18.435 15.0638 17.6034L18.3901 14.994L20.0532 13.7037L20.8848 13.0441C21.1429 12.8434 21.4583 12.5853 21.745 12.3559C22.8347 11.4383 23.8383 10.4634 24.928 9.88989L25.014 9.83254C25.2721 10.0046 25.5875 10.1766 25.8456 10.3487C26.419 10.7215 26.9639 11.1229 27.48 11.5244C29.2579 12.9008 30.9497 14.5066 32.8136 15.9403C34.6487 17.3454 36.4839 18.7504 38.3191 20.1268C41.9895 22.9083 45.7173 25.6324 49.4737 28.2992C49.9612 28.758 50.2192 28.4426 49.7604 28.0411Z" fill="#2F2911"/>
<path d="M8.4972 4.843L8.98468 5.7606C9.12805 6.04735 9.24275 6.30542 9.3001 6.50615C9.35745 6.73555 9.32878 6.82157 9.3001 6.87892C9.24275 6.93627 9.12805 7.07965 8.92733 7.19434C8.7266 7.30904 8.69793 7.76784 8.86998 8.25532C9.0707 8.71411 9.50083 9.00086 9.8736 8.77146C10.2464 8.54207 10.6478 8.22664 10.9346 7.68182C10.9919 7.53844 11.0493 7.39507 11.1066 7.25169C11.1353 7.10832 11.164 6.96494 11.164 6.82157C11.164 6.53482 11.1353 6.27675 11.0779 6.04735C10.9632 5.58855 10.7912 5.21578 10.6191 4.90035L10.1317 3.98275C10.017 3.75335 9.90227 3.52396 9.81625 3.32323C9.7589 3.12251 9.70155 2.95046 9.67288 2.77841C9.61553 2.43431 9.70155 2.20491 9.93095 1.88949C10.189 1.57406 10.5905 1.31599 11.0779 1.08659C11.5367 0.85719 12.0529 0.68514 12.5977 0.513091C12.7411 0.484416 12.7124 0.0542928 12.569 0.0542928C11.9955 -0.003057 11.3934 -0.0317319 10.7912 0.0542928C10.189 0.140318 9.55818 0.312366 8.956 0.74249C8.81263 0.85719 8.66925 0.97189 8.52588 1.14394C8.3825 1.28731 8.29648 1.45936 8.18178 1.66009C8.09576 1.83214 8.03841 2.03286 7.98106 2.23359C7.95238 2.43431 7.92371 2.63503 7.92371 2.83576C7.92371 3.23721 8.00973 3.58131 8.09576 3.9254C8.23913 4.2695 8.35383 4.58493 8.4972 4.843Z" fill="#2F2911"/>
<path d="M12.4256 3.00792C12.3109 3.0366 12.1676 3.06527 12.0242 3.20865C11.8808 3.35202 11.8235 3.6101 11.8521 3.78215C11.8521 3.9542 11.9095 4.09757 11.9668 4.21227C12.1676 4.67107 12.397 4.95782 12.655 5.21589C12.7697 5.35927 12.9131 5.47397 13.0565 5.61734L13.4293 5.96144C13.4293 5.96144 13.4293 5.96144 13.4579 6.01879C13.4866 6.04746 13.5153 6.10481 13.5153 6.13349C13.5153 6.16216 13.544 6.19084 13.544 6.19084C13.544 6.21951 13.544 6.21951 13.544 6.21951C13.5726 6.21951 13.5153 6.42024 13.2859 6.70699C13.0852 6.99374 12.7984 7.33783 12.5403 7.85398C12.483 7.96868 12.5117 8.14073 12.655 8.28411C12.7697 8.42748 12.9991 8.54218 13.2285 8.59953C13.4579 8.68555 13.716 8.71423 13.8881 8.71423C14.0601 8.7429 14.1748 8.74291 14.2035 8.68556C14.3182 8.45616 14.5476 8.14073 14.8343 7.76796C14.9777 7.56723 15.1211 7.36651 15.2358 7.05109C15.3505 6.76434 15.4652 6.36289 15.4078 5.96144C15.3792 5.78939 15.3505 5.64602 15.2931 5.50264C15.2358 5.35927 15.1784 5.24457 15.0924 5.12987C15.0064 5.01517 14.949 4.92914 14.863 4.84312C14.777 4.75709 14.6623 4.61372 14.5189 4.52769C14.3469 4.41299 14.2035 4.35564 14.0601 4.26962L13.63 4.04022C13.3719 3.89685 13.0852 3.75347 12.9131 3.63877L12.8558 3.6101C12.8558 3.6101 12.8558 3.6101 12.8271 3.6101C12.8271 3.6101 12.8271 3.6101 12.7697 3.6101C12.7411 3.6101 12.7124 3.6101 12.7124 3.6101C12.7124 3.6101 12.7124 3.6101 12.7124 3.58142C12.7411 3.52407 12.7984 3.4954 12.8844 3.43805C12.9418 3.3807 12.8844 2.97925 12.7984 2.97925C12.655 3.00792 12.569 3.00792 12.4256 3.00792Z" fill="#2F2911"/>
<path d="M44.513 28.0411C40.8426 24.9729 37.1148 21.9333 33.3584 18.9511L30.5196 16.7145L29.1145 15.5962L28.3977 15.0513L28.0536 14.7933C27.9675 14.7072 27.8528 14.6212 27.7668 14.5352C27.3367 14.1337 26.9066 13.7036 26.3044 13.2735C26.161 13.1588 25.989 13.0728 25.7882 12.9867C25.6735 12.9294 25.5875 12.9007 25.4441 12.872C25.3008 12.8434 25.1574 12.8147 25.014 12.8147C24.4118 12.8147 24.0104 13.0441 23.6663 13.2448C23.0354 13.6749 22.6053 14.1337 22.2039 14.4492L20.7988 15.5675L13.9168 21.0157L12.1963 22.3921C11.5942 22.8509 11.0493 23.3384 10.4758 23.7972C9.32884 24.7148 8.21052 25.6324 7.03485 26.4926C6.49002 26.8941 6.0599 27.3529 5.77315 27.697C5.62978 27.869 5.54375 28.0411 5.51508 28.1844C5.51508 28.2131 5.4864 28.2418 5.51508 28.2705C5.51508 28.2991 5.51508 28.2991 5.51508 28.3278C5.51508 28.3278 5.51508 28.3852 5.51508 28.4138C5.51508 28.4425 5.4864 28.4999 5.51508 28.4999L5.4864 28.5285C5.42905 28.5572 5.42905 28.6719 5.54375 28.7293C5.62978 28.7866 5.7158 28.8153 5.8305 28.844C6.03122 28.8726 6.26062 28.8726 6.5187 28.8153C7.03485 28.7006 7.60834 28.3852 8.18184 27.9837C9.38619 27.0948 10.5332 26.1772 11.6802 25.2309C12.2537 24.7721 12.8272 24.2847 13.372 23.8545L15.0925 22.4781L22.0031 17.0012L23.4082 15.8829C23.695 15.6535 23.9244 15.4528 24.1251 15.2521C24.3258 15.0513 24.5265 14.8793 24.7273 14.7646C24.8993 14.6499 25.0427 14.5925 25.0714 14.6212C25.014 14.5925 25.2147 14.6499 25.4155 14.7933C25.8169 15.0513 26.247 15.4528 26.7058 15.8542C26.8205 15.9689 26.9352 16.055 27.1073 16.1697L27.4801 16.4564L28.1969 17.0012L29.6593 18.0622L32.5842 20.1841C36.484 22.9943 40.4124 25.7471 44.3696 28.4712C44.7424 28.7579 45.0004 28.4425 44.513 28.0411Z" fill="#2F2911"/>
</svg>